<svg width="94" height="94" viewBox="0 0 94 94" fill="none" xmlns="http://www.w3.org/2000/svg">
<path d="M51.5489 63.677V63.234C51.5455 59.8072 51.133 56.393 50.3199 53.064H43.6739C42.8622 56.3932 42.451 59.8073 42.4489 63.234V63.677L39.4199 61.656V92.483H54.5809V61.656L51.5489 63.677Z" fill="#31C224"/>
<path d="M31.01 19.848C32.5211 18.1882 33.3575 16.0236 33.355 13.779V13.573C33.3553 11.7886 32.8264 10.0442 31.8352 8.56052C30.844 7.0768 29.435 5.92041 27.7864 5.23764C26.1378 4.55488 24.3238 4.37641 22.5737 4.72483C20.8237 5.07325 19.2164 5.93288 17.955 7.195L16.677 8.473L15.401 7.191C14.1396 5.92889 12.5323 5.06924 10.7822 4.72083C9.03221 4.37241 7.21817 4.55088 5.56959 5.23364C3.92102 5.91641 2.51199 7.0728 1.52076 8.55652C0.529525 10.0402 0.000632533 11.7846 0.00098751 13.569V13.775C-0.00251373 16.021 0.83392 18.1872 2.34599 19.848L16.678 35.607L31.01 19.848ZM3.03299 13.775V13.569C3.03285 12.3845 3.384 11.2266 4.04203 10.2417C4.70005 9.25686 5.63538 8.48926 6.72971 8.03602C7.82404 7.58279 9.02821 7.46429 10.1899 7.69551C11.3516 7.92673 12.4186 8.49728 13.256 9.335L16.678 12.757L20.101 9.335C20.9382 8.49714 22.0052 7.92645 23.1669 7.69515C24.3286 7.46385 25.5327 7.58234 26.6271 8.03561C27.7214 8.48889 28.6567 9.25658 29.3146 10.2416C29.9725 11.2265 30.3234 12.3845 30.323 13.569V13.775C30.3241 15.2651 29.7688 16.7019 28.766 17.804L16.678 31.104L4.58999 17.804C3.58715 16.7019 3.03189 15.2651 3.03299 13.775V13.775Z" fill="#1D1D1D"/>
<path d="M84.979 62.161C83.7939 62.158 82.62 62.39 81.5253 62.8437C80.4305 63.2974 79.4365 63.9637 78.601 64.804L77.323 66.082L76.047 64.806C75.5188 64.2918 74.929 63.8451 74.291 63.476V54.576H77.323C78.1269 54.5752 78.8976 54.2555 79.466 53.6871C80.0345 53.1186 80.3542 52.3479 80.355 51.544V45.484C80.3542 44.6801 80.0345 43.9094 79.466 43.3409C78.8976 42.7725 78.1269 42.4528 77.323 42.452H69.533C70.658 40.7323 71.2578 38.7221 71.259 36.667V36.388C71.2585 34.1612 70.5575 31.9909 69.2552 30.1845C67.953 28.3781 66.1155 27.0272 64.0029 26.323C61.8904 25.6187 59.6098 25.5969 57.4842 26.2606C55.3585 26.9243 53.4955 28.2399 52.159 30.021C50.9644 31.6215 49.9079 33.3206 49.001 35.1C48.3449 34.9495 47.6741 34.8727 47.001 34.871C46.328 34.873 45.6573 34.9491 45.001 35.098C44.0941 33.3188 43.0379 31.6197 41.844 30.019C40.507 28.2384 38.6439 26.9234 36.5184 26.2601C34.3929 25.5969 32.1125 25.6189 30.0002 26.3232C27.8879 27.0274 26.0506 28.3782 24.7483 30.1843C23.4461 31.9904 22.7449 34.1604 22.744 36.387V36.666C22.7451 38.7211 23.3449 40.7313 24.47 42.451H16.68C15.8757 42.4515 15.1046 42.7713 14.5359 43.3399C13.9672 43.9086 13.6475 44.6798 13.647 45.484V51.548C13.6478 52.3519 13.9675 53.1226 14.5359 53.6911C15.1043 54.2595 15.8751 54.5792 16.679 54.58H19.711V93.999H74.291V89.886L77.323 93.221L91.655 77.458C93.1655 75.7975 94.0018 73.6328 94 71.388V71.182C93.9973 68.7903 93.0461 66.4973 91.3549 64.8061C89.6637 63.1149 87.3707 62.1636 84.979 62.161V62.161ZM77.323 51.548H59.836C58.9587 49.3804 57.7936 47.3407 56.372 45.484H77.323V51.548ZM35.647 42.451L32.091 37.502C31.9259 37.2541 31.8379 36.9629 31.838 36.665V36.386C31.8374 36.0583 31.9426 35.7391 32.138 35.476C32.2855 35.2971 32.4709 35.153 32.6807 35.0541C32.8905 34.9552 33.1195 34.9039 33.3515 34.9039C33.5834 34.9039 33.8125 34.9552 34.0223 35.0541C34.2321 35.153 34.4174 35.2971 34.565 35.476C35.5012 36.7216 36.3222 38.0497 37.018 39.444L38.172 41.789C38.119 42.006 38.072 42.224 38.035 42.446H35.647V42.451ZM44.624 45.483C42.5136 50.3614 41.2856 55.5755 40.997 60.883L37.903 58.819L35.221 60.608L35.431 58.72C35.9943 53.754 38.1598 49.1065 41.6 45.481H44.625L44.624 45.483ZM47 47.699C47.508 48.96 47.962 50.242 48.345 51.547H45.655C46.039 50.243 46.493 48.961 47.001 47.7L47 47.699ZM49.376 45.483H52.401C55.8411 49.1085 58.0067 53.756 58.57 58.722L58.78 60.61L56.098 58.822L52.998 60.886C52.7107 55.5786 51.4833 50.3643 49.373 45.486L49.376 45.483ZM55.824 41.794L56.975 39.456C57.6726 38.0589 58.4953 36.7278 59.433 35.479C59.5806 35.3004 59.7658 35.1567 59.9754 35.058C60.185 34.9593 60.4138 34.9081 60.6455 34.9081C60.8771 34.9081 61.106 34.9593 61.3156 35.058C61.5252 35.1567 61.7104 35.3004 61.858 35.479C62.0532 35.7422 62.1584 36.0613 62.158 36.389V36.668C62.1609 36.9506 62.0832 37.2281 61.934 37.468L58.349 42.456H55.957C55.919 42.235 55.873 42.015 55.82 41.799L55.824 41.794ZM54.581 31.838C55.5357 30.5655 56.8666 29.6256 58.3851 29.1513C59.9037 28.6771 61.5329 28.6926 63.0421 29.1957C64.5514 29.6987 65.8641 30.6638 66.7945 31.9542C67.7248 33.2447 68.2256 34.7951 68.226 36.386V36.665C68.226 38.1601 67.7831 39.6216 66.953 40.865L65.899 42.446H62.085L64.429 39.184C64.9291 38.4377 65.1954 37.5593 65.194 36.661V36.382C65.1944 35.4272 64.8942 34.4964 64.336 33.7217C63.7778 32.9471 62.9898 32.3678 62.0839 32.066C61.178 31.7643 60.2001 31.7554 59.2888 32.0406C58.3776 32.3258 57.5792 32.8906 57.007 33.655C55.9577 35.0524 55.0376 36.5422 54.258 38.106L54.141 38.344C53.492 37.5219 52.7065 36.8173 51.819 36.261C52.618 34.7139 53.5421 33.2346 54.582 31.838H54.581ZM52.847 42.451H41.147C41.4768 41.1496 42.2312 39.9954 43.2907 39.1709C44.3503 38.3465 45.6545 37.8988 46.997 37.8988C48.3395 37.8988 49.6437 38.3465 50.7032 39.1709C51.7627 39.9954 52.5171 41.1496 52.847 42.451V42.451ZM27.047 40.874C26.2169 39.6306 25.7739 38.169 25.774 36.674V36.395C25.7743 34.8041 26.2751 33.2537 27.2055 31.9632C28.1358 30.6728 29.4486 29.7077 30.9578 29.2047C32.467 28.7016 34.0963 28.6861 35.6148 29.1603C37.1334 29.6346 38.4642 30.5745 39.419 31.847C40.4582 33.245 41.3826 34.7248 42.183 36.272C41.2949 36.828 40.5091 37.5326 39.86 38.355L39.739 38.109C38.9595 36.5485 38.0405 35.0618 36.993 33.667C36.4204 32.9032 35.6221 32.339 34.711 32.0542C33.7999 31.7694 32.8223 31.7784 31.9167 32.0801C31.0111 32.3817 30.2233 32.9607 29.665 33.7349C29.1067 34.5092 28.8062 35.4395 28.806 36.394V36.673C28.8065 37.5881 29.0833 38.4817 29.6 39.237L31.915 42.459H28.103L27.047 40.874ZM16.677 45.487H37.63C36.2084 47.3437 35.0432 49.3834 34.166 51.551H16.679L16.677 45.487ZM22.747 90.967V54.58H33.157C32.8172 55.8295 32.5719 57.1028 32.423 58.389L31.494 66.744L37.909 62.467L43.973 66.509V63.234C43.9801 60.3246 44.2931 57.424 44.907 54.58H49.107C49.7207 57.424 50.0338 60.3246 50.041 63.234V66.509L56.105 62.467L62.52 66.742L61.591 58.387C61.442 57.1008 61.1967 55.8275 60.857 54.578H71.266V90.965H22.747V90.967ZM90.972 71.388C90.9731 72.8781 90.4178 74.3149 89.415 75.417L77.327 88.717L74.295 85.381V67.337L77.327 70.369L80.75 66.947C81.5872 66.1091 82.6542 65.5385 83.8159 65.3072C84.9776 65.0759 86.1817 65.1943 87.2761 65.6476C88.3704 66.1009 89.3057 66.8686 89.9635 67.8536C90.6214 68.8385 90.9724 69.9965 90.972 71.181V71.388Z" fill="#1D1D1D"/>
<path d="M62.1623 18.821L53.2493 9.908C52.7103 9.36906 52.2828 8.72923 51.9911 8.02507C51.6994 7.3209 51.5493 6.56618 51.5493 5.804C51.5493 5.04182 51.6994 4.2871 51.9911 3.58293C52.2828 2.87877 52.7103 2.23895 53.2493 1.7C53.7882 1.16106 54.428 0.733541 55.1322 0.441866C55.8363 0.150191 56.5911 6.77109e-05 57.3532 6.77109e-05C58.1154 6.77109e-05 58.8701 0.150191 59.5743 0.441866C60.2785 0.733541 60.9183 1.16106 61.4572 1.7L62.1573 2.4L62.8573 1.7C63.9457 0.611552 65.4219 6.77109e-05 66.9612 6.77109e-05C68.5005 6.77109e-05 69.9768 0.611552 71.0652 1.7C72.1537 2.78845 72.7652 4.2647 72.7652 5.804C72.7652 7.3433 72.1537 8.81955 71.0652 9.908L62.1623 18.821Z" fill="#31C224"/>
<path d="M9.10107 93.111L1.39007 85.4C0.50878 84.5113 0.0154584 83.3097 0.0180768 82.0581C0.0206951 80.8066 0.51904 79.607 1.40404 78.722C2.28903 77.837 3.4886 77.3386 4.74017 77.336C5.99174 77.3334 7.19337 77.8267 8.08207 78.708L9.10107 79.722L10.1201 78.703C11.0088 77.8217 12.2104 77.3284 13.462 77.331C14.7135 77.3336 15.9131 77.832 16.7981 78.717C17.6831 79.602 18.1814 80.8015 18.1841 82.0531C18.1867 83.3047 17.6934 84.5063 16.8121 85.395L9.10107 93.111Z" fill="#31C224"/>
<path d="M84.9072 46.111L77.1962 38.4C76.315 37.5113 75.8216 36.3097 75.8242 35.0581C75.8268 33.8065 76.3252 32.607 77.2102 31.722C78.0952 30.837 79.2948 30.3386 80.5463 30.336C81.7979 30.3334 82.9995 30.8267 83.8882 31.708L84.9072 32.722L85.9262 31.703C86.8149 30.8217 88.0166 30.3284 89.2681 30.331C90.5197 30.3336 91.7193 30.832 92.6043 31.717C93.4893 32.602 93.9876 33.8015 93.9902 35.0531C93.9928 36.3047 93.4995 37.5063 92.6182 38.395L84.9072 46.111Z" fill="#31C224"/>
</svg>
