<svg width="10" height="16" viewBox="0 0 10 16" fill="none" xmlns="http://www.w3.org/2000/svg">
<path d="M4.79286 0C2.15 0 0 2.09643 0 4.73929C0 5.325 0.125 5.96429 0.35 6.53929H0.346428L0.367857 6.58214C0.385714 6.62143 0.403572 6.66071 0.421429 6.7L4.79286 16L9.14286 6.74643L9.16429 6.70357C9.18214 6.66429 9.20357 6.625 9.22143 6.58214L9.23571 6.54286C9.46786 5.96786 9.58572 5.36071 9.58572 4.74643C9.58572 2.09643 7.43571 0 4.79286 0ZM8.68929 6.33571L8.68214 6.35357C8.67143 6.375 8.66071 6.4 8.65 6.42143L8.61429 6.49643L4.79286 14.6179L0.967857 6.49643L0.935714 6.425C0.925 6.40357 0.914286 6.38214 0.907143 6.36071C0.696428 5.84286 0.582143 5.26786 0.582143 4.73929C0.582143 2.41786 2.47143 0.578571 4.79643 0.578571C7.12143 0.578571 9.01071 2.41429 9.01071 4.73929C9.00714 5.28214 8.9 5.81786 8.68929 6.33571Z" fill="white"/>
<path d="M4.79255 2.28571C3.53184 2.28571 2.50684 3.31071 2.50684 4.57142C2.50684 5.83213 3.53184 6.85713 4.79255 6.85713C6.05326 6.85713 7.07826 5.83213 7.07826 4.57142C7.07826 3.31071 6.05326 2.28571 4.79255 2.28571ZM4.79255 6.24642C3.86755 6.24642 3.11755 5.49642 3.11755 4.57142C3.11755 3.64642 3.86755 2.89642 4.79255 2.89642C5.71755 2.89642 6.46755 3.64642 6.46755 4.57142C6.46755 5.49642 5.71755 6.24642 4.79255 6.24642Z" fill="white"/>
</svg>
